<svg width="45" height="37" viewBox="0 0 45 37" fill="none" xmlns="http://www.w3.org/2000/svg">
<g clip-path="url(#clip0_294_62)">
<path d="M44.5331 36.0792V13.1602C44.3264 12.872 44.3576 12.5179 44.2758 12.1962C43.3477 8.51838 40.1102 5.86927 36.3235 5.74729C34.8216 5.69871 33.3164 5.7149 31.8134 5.73326C31.3924 5.73865 31.2428 5.66417 31.2363 5.18919C31.1965 2.27129 29.196 0.143585 26.2858 0.0442702C23.7826 -0.0420901 21.275 0.0248392 18.7696 0.0291572C18.2658 0.0291572 17.7737 0.118756 17.2957 0.282841C15.1477 1.02122 13.8417 2.8866 13.8267 5.28742C13.8245 5.65013 13.7212 5.73757 13.3723 5.73218C12.0265 5.71167 10.6807 5.72246 9.33482 5.72462C8.6899 5.72462 8.04821 5.75485 7.41406 5.88763C3.35181 6.73504 0.5471 10.1808 0.539566 14.3833C0.527721 21.4184 0.536335 28.4536 0.538486 35.4887C0.538486 35.6593 0.542793 35.8363 0.583706 35.9993C0.75705 36.6902 1.24585 36.9881 2.17717 36.9881C15.6947 36.9881 29.2122 36.9838 42.7308 36.9989C43.5264 36.9989 44.1563 36.8273 44.5342 36.0781L44.5331 36.0792ZM27.2451 18.4984C27.7318 18.4984 28.2184 18.4941 28.7051 18.4984C29.5707 18.507 30.0886 19.0219 30.095 19.8942C30.1015 20.842 30.0983 21.7887 30.095 22.7365C30.0918 23.6973 29.5998 24.1993 28.6491 24.2046C27.6758 24.21 26.7025 24.2165 25.7292 24.1993C25.4439 24.1939 25.3685 24.2802 25.3728 24.5609C25.389 25.5508 25.3846 26.5418 25.3782 27.5317C25.3728 28.4115 24.8657 28.9253 23.9968 28.9307C23.0235 28.9372 22.0502 28.9372 21.0769 28.9307C20.2048 28.9253 19.6966 28.4147 19.6913 27.5371C19.6848 26.5612 19.6773 25.5843 19.6966 24.6095C19.7031 24.2975 19.6374 24.1895 19.3015 24.1971C18.3282 24.2219 17.3549 24.2122 16.3816 24.2036C15.4815 24.196 14.9787 23.6865 14.9733 22.7851C14.9679 21.8373 14.969 20.8906 14.9733 19.9428C14.9776 19.0144 15.4826 18.5027 16.401 18.4995C17.3883 18.4952 18.3766 18.4887 19.3639 18.5049C19.6342 18.5092 19.6988 18.4282 19.6945 18.167C19.6794 17.1771 19.6837 16.1861 19.6891 15.1962C19.6945 14.2905 20.1994 13.7766 21.092 13.7702C22.0513 13.7637 23.0106 13.7637 23.9699 13.7702C24.8646 13.7756 25.3728 14.2883 25.3782 15.1908C25.3846 16.1667 25.3911 17.1425 25.3728 18.1184C25.3674 18.4088 25.4266 18.5232 25.7421 18.5059C26.2417 18.4779 26.7434 18.4984 27.2451 18.4984ZM22.5799 5.7257C20.6473 5.7257 18.7158 5.72786 16.7832 5.72138C16.6411 5.72138 16.4182 5.83365 16.3945 5.53787C16.261 3.89702 17.3151 2.71928 18.5855 2.65343C21.1297 2.52281 23.6792 2.56167 26.2244 2.6286C27.7522 2.66962 28.6405 3.72754 28.6825 5.27447C28.6911 5.61559 28.6211 5.73865 28.2486 5.73541C26.359 5.7149 24.4695 5.7257 22.581 5.7257H22.5799Z" fill="url(#paint0_linear_294_62)"/>
</g>
<defs>
<linearGradient id="paint0_linear_294_62" x1="22.5338" y1="0.000366211" x2="22.5338" y2="36.9989" gradientUnits="userSpaceOnUse">
<stop stop-color="#F57E4F"/>
<stop offset="1" stop-color="#F5B766"/>
</linearGradient>
<clipPath id="clip0_294_62">
<rect width="44" height="37" fill="white" transform="matrix(-1 0 0 1 44.5332 0)"/>
</clipPath>
</defs>
</svg>
