<svg width="45" height="38" viewBox="0 0 45 38" fill="none" xmlns="http://www.w3.org/2000/svg">
<g clip-path="url(#clip0_294_52)">
<path d="M0.532526 27.5534C0.532526 19 0.532526 10.4458 0.532526 1.89156C0.562527 1.86707 0.605764 1.84764 0.619 1.8164C1.22078 0.452622 1.93199 0 3.48057 0C16.2107 0 28.9408 0 41.671 0C43.4807 0 44.5316 0.997289 44.5316 2.71573C44.5316 10.7194 44.5316 18.723 44.5316 26.7275C44.5316 28.4451 43.479 29.4449 41.671 29.4458C33.0218 29.4458 24.3727 29.4458 15.7236 29.4458C11.5711 29.4458 7.41864 29.4466 3.26526 29.4458C1.98758 29.4458 1.12461 28.8783 0.657825 27.7459C0.629589 27.6775 0.645471 27.5736 0.530762 27.5542L0.532526 27.5534Z" fill="url(#paint0_linear_294_52)"/>
<path d="M22.5066 37.9992C27.0447 37.9992 31.5837 37.9992 36.1217 37.9992C36.9882 37.9992 37.5733 37.4942 37.5697 36.7604C37.5662 36.0274 36.9812 35.5334 36.1094 35.5325C33.9617 35.5317 31.814 35.5275 29.6671 35.5385C29.39 35.5401 29.3089 35.476 29.3142 35.2041C29.3318 34.2042 29.3142 33.2036 29.3265 32.2037C29.3292 31.974 29.2674 31.9082 29.0221 31.9082C24.6984 31.9158 20.3747 31.9166 16.0511 31.9065C15.7599 31.9065 15.7361 32.0095 15.7387 32.2367C15.7502 33.196 15.7272 34.1553 15.7519 35.1137C15.7608 35.4447 15.6902 35.5452 15.3196 35.5418C13.1719 35.5216 11.025 35.5309 8.8773 35.5334C8.25875 35.5334 7.79109 35.8222 7.58638 36.312C7.23519 37.1547 7.88021 37.9975 8.89054 37.9983C13.4286 38.0017 17.9676 38 22.5057 38L22.5066 37.9992Z" fill="#FEFEFE"/>
<path d="M22.5067 37.9992C17.9686 37.9992 13.4296 38.0008 8.89152 37.9975C7.88119 37.9975 7.23617 37.1539 7.58736 36.3111C7.79119 35.8213 8.25973 35.5334 8.87828 35.5325C11.026 35.53 13.1737 35.5216 15.3206 35.541C15.6912 35.5444 15.7609 35.443 15.7529 35.1128C15.7282 34.1544 15.7503 33.1943 15.7397 32.2358C15.737 32.0078 15.7609 31.9048 16.0521 31.9056C20.3757 31.9166 24.6994 31.9149 29.0231 31.9073C29.2684 31.9073 29.331 31.9732 29.3275 32.2029C29.3143 33.2027 29.3328 34.2034 29.3151 35.2032C29.3098 35.4751 29.391 35.5384 29.6681 35.5376C31.8158 35.5266 33.9627 35.5308 36.1104 35.5317C36.9822 35.5317 37.5672 36.0265 37.5707 36.7595C37.5742 37.4942 36.9892 37.9983 36.1227 37.9983C31.5846 37.9992 27.0457 37.9983 22.5076 37.9983L22.5067 37.9992Z" fill="url(#paint1_linear_294_52)"/>
</g>
<defs>
<linearGradient id="paint0_linear_294_52" x1="22.5312" y1="0" x2="22.5312" y2="29.4462" gradientUnits="userSpaceOnUse">
<stop stop-color="#F57E4F"/>
<stop offset="1" stop-color="#F5B766"/>
</linearGradient>
<linearGradient id="paint1_linear_294_52" x1="22.5307" y1="31.9056" x2="22.5307" y2="37.9996" gradientUnits="userSpaceOnUse">
<stop stop-color="#F57E4F"/>
<stop offset="1" stop-color="#F5B766"/>
</linearGradient>
<clipPath id="clip0_294_52">
<rect width="44" height="38" fill="white" transform="translate(0.532715)"/>
</clipPath>
</defs>
</svg>
