<svg width="40" height="37" viewBox="0 0 40 37" fill="none" xmlns="http://www.w3.org/2000/svg">
<g clip-path="url(#clip0_294_47)">
<path d="M39.3935 19.6579V36.9999H0.533203V0.903076H19.1235C18.1186 1.19354 17.4252 1.87247 16.7103 2.53731C11.7686 7.13684 6.81904 11.7293 1.87162 16.3239C1.74619 16.4402 1.6179 16.5545 1.50387 16.6799C0.626564 17.6444 0.360022 18.7414 0.794757 19.9371C1.23448 21.1441 2.16096 21.8886 3.51506 22.1333C3.91701 22.2059 4.33393 22.2045 4.76652 22.2383C4.76652 22.3962 4.76652 22.5358 4.76652 22.6754C4.76652 26.0828 4.76296 29.4901 4.76795 32.8982C4.77151 35.2628 6.57317 36.9287 9.12171 36.9323C11.0445 36.9351 12.968 36.933 14.8909 36.9323C15.8786 36.9323 16.2977 36.5431 16.2977 35.6252C16.2984 32.9341 16.2963 30.2438 16.2984 27.5527C16.2991 26.3196 17.0688 25.6026 18.3923 25.5991C19.4549 25.5963 20.5189 25.628 21.5801 25.5907C22.9349 25.5427 23.8001 26.4317 23.7801 27.6105C23.7338 30.3122 23.7644 33.0152 23.7666 35.7175C23.7666 36.5128 24.2234 36.9309 25.0822 36.9316C27.0556 36.933 29.0297 36.9372 31.0031 36.9273C31.3545 36.9259 31.7144 36.8984 32.0551 36.8237C34.0007 36.3972 35.2906 34.8729 35.2956 32.9821C35.3049 29.5275 35.2985 26.0729 35.2985 22.6183C35.2985 22.4844 35.2985 22.3497 35.2985 22.2002C35.555 22.2002 35.7439 22.2023 35.9335 22.2002C36.8592 22.1882 37.6574 21.8816 38.338 21.3013C38.8669 20.8508 39.1683 20.2762 39.3921 19.6579H39.3935Z" fill="white"/>
<path d="M38.3383 21.3021C37.657 21.8816 36.8595 22.1883 35.9338 22.201C35.7442 22.2038 35.5553 22.201 35.2988 22.201C35.2988 22.3505 35.2988 22.4844 35.2988 22.6191C35.2988 26.0737 35.3052 29.5282 35.2959 32.9828C35.2909 34.8737 34.001 36.3979 32.0554 36.8245C31.7147 36.8992 31.3548 36.9267 31.0034 36.9281C29.03 36.938 27.0559 36.9337 25.0825 36.9323C24.2237 36.9323 23.7676 36.5128 23.7669 35.7183C23.7648 33.016 23.7341 30.3129 23.7804 27.6113C23.8004 26.4325 22.9352 25.5442 21.5804 25.5914C20.5192 25.6288 19.4552 25.5964 18.3926 25.5999C17.0691 25.6034 16.3001 26.3204 16.2987 27.5535C16.2966 30.2445 16.2987 32.9349 16.298 35.6259C16.298 36.5446 15.8782 36.933 14.8912 36.933C12.9684 36.933 11.0448 36.9352 9.12202 36.933C6.57348 36.9295 4.77182 35.2636 4.76826 32.8989C4.76327 29.4916 4.76683 26.0842 4.76683 22.6762C4.76683 22.5366 4.76683 22.397 4.76683 22.2391C4.33423 22.2052 3.9166 22.2066 3.51537 22.134C2.16127 21.8887 1.23408 21.1449 0.795065 19.9379C0.359617 18.7429 0.626872 17.6452 1.50418 16.6807C1.61821 16.5552 1.74649 16.441 1.87192 16.3247C6.81864 11.7294 11.7682 7.1369 16.7099 2.53737C17.6443 1.66808 18.5422 0.774123 20.1465 0.757202H20.1721C21.5633 0.87494 22.4171 1.66103 23.2787 2.46334C28.1427 6.99308 33.0125 11.5179 37.8922 16.0335C38.8116 16.8838 39.5998 17.777 39.5278 19.2519C39.2884 20.0225 38.9812 20.7536 38.3376 21.3014L38.3383 21.3021ZM26.0432 34.8173H26.505C27.9475 34.8173 29.3914 34.7771 30.831 34.8293C32.0995 34.8751 33.051 34.0516 33.036 32.777C32.9918 28.9586 33.0196 25.1395 33.0203 21.3211C33.0203 20.504 33.4707 20.0902 34.3545 20.0874C34.8861 20.086 35.4178 20.0979 35.9487 20.0817C36.4612 20.0662 36.8339 19.8237 37.0555 19.3972C37.2793 18.9671 37.2237 18.5504 36.9265 18.1669C36.8168 18.0252 36.675 17.9039 36.541 17.7791C31.4246 13.0259 26.3076 8.27409 21.1898 3.52157C20.3474 2.73901 19.7139 2.74253 18.8615 3.53356C14.2006 7.86166 9.53894 12.1905 4.87801 16.5193C4.34136 17.0177 3.79973 17.5119 3.26949 18.0167C2.86968 18.3974 2.75351 18.8536 2.978 19.3457C3.20179 19.835 3.62441 20.0824 4.20168 20.0852C4.66991 20.0881 5.13814 20.086 5.60566 20.0867C6.62051 20.0867 7.04028 20.4723 7.041 21.4057C7.041 25.1896 7.07307 28.9734 7.02389 32.7558C7.00607 34.108 8.01808 34.8772 9.2446 34.83C10.6842 34.775 12.1288 34.8173 13.5706 34.8173H14.0174C14.0174 34.6424 14.0174 34.5043 14.0174 34.3668C14.0203 31.9697 13.996 29.5727 14.0352 27.1763C14.0659 25.3221 15.6929 23.6696 17.687 23.5462C19.2471 23.4496 20.82 23.5271 22.3879 23.5307C22.5005 23.5307 22.6138 23.5553 22.7242 23.5786C24.7126 23.9939 26.0254 25.5096 26.0368 27.4386C26.0496 29.7412 26.0403 32.0445 26.0403 34.3477C26.0403 34.4873 26.0403 34.6262 26.0403 34.8187L26.0432 34.8173Z" fill="url(#paint0_linear_294_47)"/>
<path d="M39.393 18.1069C39.1336 17.2651 38.5464 16.6383 37.8928 16.0341C33.0131 11.5185 28.1434 6.99372 23.2793 2.46398C22.5895 1.82171 21.9053 1.19002 20.9453 0.903076H39.393V18.1069Z" fill="white"/>
<path d="M26.0441 35.4053C26.0441 35.2128 26.0441 35.0739 26.0441 34.9343C26.0441 32.631 26.054 31.0335 26.0405 28.7302C26.0298 26.8013 24.7163 24.5812 22.728 24.1652C22.6175 24.1419 22.5035 24.1173 22.3916 24.1173C20.8244 24.1137 19.2515 24.0362 17.6907 24.1328C15.6967 24.2561 14.0689 25.9094 14.039 27.7629C13.9998 30.1593 14.024 32.5563 14.0211 34.9534C14.0211 35.0908 14.0211 35.229 14.0211 35.4039H13.5743C12.1318 35.4039 10.6879 35.3616 9.24832 35.4166C8.0218 35.4631 7.01051 36.1047 7.02761 34.7524C7.07678 30.9693 7.04471 22.2504 7.04471 18.4672C7.04471 17.5345 8.14295 22.789 7.12739 22.7883C6.65915 22.7883 2.3959 20.4631 1.92838 20.4603C1.35111 20.4575 3.20479 16.8965 2.98172 16.4072C2.75652 15.9144 2.87268 15.4589 3.27321 15.0782C3.80344 14.5734 4.34437 14.0792 4.88173 13.5808C9.54123 9.25338 14.2029 4.92457 18.8638 0.596473C19.7162 -0.194557 20.3497 -0.198082 21.1921 0.584487C26.3092 5.33701 31.4262 10.0888 36.5433 14.842C36.6772 14.9668 36.8191 15.0881 36.9288 15.2298C37.226 15.6126 37.2816 16.03 37.0578 16.4601C36.8362 16.8859 37.9814 20.6542 37.469 20.6697C36.9381 20.6859 36.4064 20.674 35.8748 20.6754C34.9903 20.6782 34.5406 21.092 34.5406 21.9091C34.5392 25.7282 32.9941 29.5466 33.0383 33.365C33.0533 34.6403 32.1018 35.4638 30.8333 35.4173C29.3929 35.3651 27.949 35.4053 26.5073 35.4053H26.0455H26.0441Z" fill="url(#paint1_linear_294_47)"/>
</g>
<defs>
<linearGradient id="paint0_linear_294_47" x1="20.0611" y1="0.757202" x2="20.0611" y2="36.9344" gradientUnits="userSpaceOnUse">
<stop stop-color="#F57E4F"/>
<stop offset="1" stop-color="#F5B766"/>
</linearGradient>
<linearGradient id="paint1_linear_294_47" x1="19.7094" y1="0.000366211" x2="19.7094" y2="35.6091" gradientUnits="userSpaceOnUse">
<stop stop-color="#F57E4F"/>
<stop offset="1" stop-color="#F5B766"/>
</linearGradient>
<clipPath id="clip0_294_47">
<rect width="39" height="37" fill="white" transform="translate(0.533203)"/>
</clipPath>
</defs>
</svg>
