<svg width="55" height="36" viewBox="0 0 55 36" fill="none" xmlns="http://www.w3.org/2000/svg">
<g clip-path="url(#clip0_294_56)">
<path d="M54.5328 35.9291C53.4468 36.0218 52.3581 35.9441 51.2708 35.97C50.8941 35.9795 51.0265 35.6972 51.0265 35.5253C51.0183 33.1972 51.021 30.8704 51.021 28.5422C51.021 28.073 50.9948 27.6025 51.0293 27.136C51.0569 26.7541 50.9051 26.6341 50.5505 26.6873C50.4994 26.6955 50.4456 26.6873 50.3918 26.6873C35.1552 26.6873 19.92 26.69 4.68347 26.6764C4.18396 26.6764 4.03769 26.78 4.04321 27.2942C4.07219 30.0207 4.04873 32.7484 4.06667 35.4749C4.06943 35.8772 3.97422 36.0136 3.54922 35.9959C2.70749 35.9618 1.86163 35.9604 1.01991 35.9959C0.608703 36.0136 0.53557 35.8799 0.53695 35.5021C0.552128 31.7855 0.546609 28.0676 0.546609 24.3509C0.546609 16.4308 0.552128 8.50931 0.53419 0.589171C0.53281 0.103624 0.668038 -0.0163987 1.13858 0.00678755C1.92786 0.0449766 2.72267 0.0558878 3.5092 0.00405976C4.01837 -0.0286737 4.06667 0.171819 4.06529 0.594626C4.05149 5.38872 4.05701 10.1828 4.05701 14.9769C4.05701 16.0366 4.06667 17.0964 4.05011 18.1561C4.04459 18.4644 4.12048 18.6199 4.45717 18.5721C4.54272 18.5598 4.63242 18.5708 4.72073 18.5708C21.1164 18.5708 37.5121 18.5708 53.9091 18.568C54.1175 18.568 54.33 18.613 54.5328 18.5258V35.9318V35.9291Z" fill="url(#paint0_linear_294_56)"/>
<path d="M34.5717 17.4128C28.8783 17.4128 23.185 17.4087 17.4916 17.421C17.0956 17.421 16.9603 17.3446 16.9686 16.9204C16.999 15.1665 16.9603 13.4111 17.0017 11.6585C17.0335 10.3396 17.4985 9.21169 18.75 8.54475C19.3682 8.21468 20.0499 8.12603 20.7398 8.12603C29.9643 8.12194 39.1901 8.11648 48.4146 8.12876C50.7038 8.13149 51.9539 9.25806 52.132 11.5085C52.281 13.3784 52.1582 15.2578 52.1885 17.1332C52.1927 17.3841 52.0643 17.4182 51.8615 17.4128C51.5634 17.4046 51.264 17.4114 50.966 17.4114C45.5017 17.4114 40.036 17.4114 34.5717 17.4114V17.4128Z" fill="url(#paint1_linear_294_56)"/>
<path d="M9.92676 17.627C7.23048 17.6243 4.98129 15.397 5.01303 12.7606C5.04476 10.1065 7.21807 7.91061 9.90606 7.92561C12.6327 7.94062 14.7743 9.95782 14.8419 12.7661C14.9053 15.4011 12.6203 17.6311 9.92676 17.6284V17.627Z" fill="url(#paint2_linear_294_56)"/>
</g>
<defs>
<linearGradient id="paint0_linear_294_56" x1="27.5335" y1="0.000610352" x2="27.5335" y2="35.9974" gradientUnits="userSpaceOnUse">
<stop stop-color="#F57E4F"/>
<stop offset="1" stop-color="#F5B766"/>
</linearGradient>
<linearGradient id="paint1_linear_294_56" x1="34.5879" y1="8.12122" x2="34.5879" y2="17.421" gradientUnits="userSpaceOnUse">
<stop stop-color="#F57E4F"/>
<stop offset="1" stop-color="#F5B766"/>
</linearGradient>
<linearGradient id="paint2_linear_294_56" x1="9.92793" y1="7.92554" x2="9.92793" y2="17.6284" gradientUnits="userSpaceOnUse">
<stop stop-color="#F57E4F"/>
<stop offset="1" stop-color="#F5B766"/>
</linearGradient>
<clipPath id="clip0_294_56">
<rect width="54" height="36" fill="white" transform="translate(0.532715)"/>
</clipPath>
</defs>
</svg>
