<svg width="640" height="1414" viewBox="0 0 640 1414" fill="none" xmlns="http://www.w3.org/2000/svg">
<g filter="url(#filter0_f_248_6763)">
<path d="M140 860C140 889.823 115.823 914 86 914L-731 914C-760.823 914 -785 889.823 -785 860L-785 554C-785 524.177 -760.823 500 -731 500L86 500C115.823 500 140 524.177 140 554L140 860Z" fill="#F5B76C" fill-opacity="0.4"/>
<path d="M139.5 860C139.5 889.547 115.547 913.5 86 913.5L-731 913.5C-760.547 913.5 -784.5 889.547 -784.5 860L-784.5 554C-784.5 524.453 -760.547 500.5 -731 500.5L86 500.5C115.547 500.5 139.5 524.453 139.5 554L139.5 860Z" stroke="black"/>
</g>
<defs>
<filter id="filter0_f_248_6763" x="-1285" y="0" width="1925" height="1414" filterUnits="userSpaceOnUse" color-interpolation-filters="sRGB">
<feFlood flood-opacity="0" result="BackgroundImageFix"/>
<feBlend mode="normal" in="SourceGraphic" in2="BackgroundImageFix" result="shape"/>
<feGaussianBlur stdDeviation="250" result="effect1_foregroundBlur_248_6763"/>
</filter>
</defs>
</svg>
