<svg width="39" height="39" viewBox="0 0 39 39" fill="none" xmlns="http://www.w3.org/2000/svg">
<path d="M0 20.6434C0 19.8814 0 19.1202 0 18.3582C0.0218994 18.2485 0.0571289 18.1397 0.0647461 18.0301C0.281836 14.9913 1.14067 12.1404 2.74314 9.55567C6.40605 3.64506 11.7381 0.44129 18.6821 0.0330691C22.2003 -0.173903 25.5538 0.591988 28.6463 2.29354C34.1459 5.31895 37.507 9.93337 38.6925 16.1072C38.8353 16.8502 38.8991 17.6075 39 18.3591V20.6444C38.9781 20.7541 38.9429 20.8619 38.9353 20.9725C38.7458 23.6927 38.026 26.2689 36.7091 28.6514C33.6756 34.1424 29.0691 37.5064 22.8963 38.6919C22.1527 38.835 21.3938 38.8989 20.6416 39H18.3565C18.2584 38.979 18.1613 38.9447 18.0623 38.938C15.3277 38.753 12.7388 38.0319 10.3451 36.709C4.855 33.6731 1.49106 29.0663 0.307544 22.8944C0.164722 22.1514 0.100928 21.3941 0 20.6434ZM14.4527 18.2208C15.0478 17.9328 15.6076 17.6676 16.1618 17.391C16.8987 17.0238 17.1472 16.3905 16.7988 15.6532C15.918 13.7886 15.4867 11.8276 15.461 9.76932C15.4515 9.04539 14.9516 8.54466 14.2346 8.53798C12.7502 8.52558 11.2649 8.52653 9.78047 8.53798C9.04446 8.54275 8.52935 9.05875 8.53696 9.79125C8.54363 10.4627 8.56458 11.137 8.63313 11.8047C8.98257 15.1945 10.0452 18.3477 11.979 21.1566C16.1142 27.1635 21.8518 30.2729 29.1529 30.4646C29.9555 30.4856 30.463 29.9676 30.4659 29.1636C30.4716 27.7301 30.4716 26.2965 30.4659 24.862C30.463 24.0446 29.9841 23.5477 29.1748 23.5363C27.1686 23.5086 25.2557 23.088 23.4343 22.2401C22.585 21.8452 21.9746 22.0779 21.5633 22.922C21.3034 23.4552 21.0463 23.9903 20.7787 24.5444C18.1041 22.9907 16.0189 20.899 14.4527 18.2208Z" fill="url(#paint0_linear_1179_63)"/>
<defs>
<linearGradient id="paint0_linear_1179_63" x1="20" y1="-1.70741e-09" x2="19.5" y2="39" gradientUnits="userSpaceOnUse">
<stop stop-color="#F57E4F"/>
<stop offset="1" stop-color="#F5B766"/>
</linearGradient>
</defs>
</svg>
